<?xml version="1.0" standalone="no"?>
<!DOCTYPE svg PUBLIC "-//W3C//DTD SVG 20010904//EN"
 "http://www.w3.org/TR/2001/REC-SVG-20010904/DTD/svg10.dtd">
<svg version="1.0" xmlns="http://www.w3.org/2000/svg"
 width="500.000000pt" height="500.000000pt" viewBox="0 0 500.000000 500.000000"
 preserveAspectRatio="xMidYMid meet">
<metadata>
Created by potrace 1.14, written by Peter Selinger 2001-2017
</metadata>
<g transform="translate(0.000000,500.000000) scale(0.100000,-0.100000)"
fill="#000000" stroke="none">
<path d="M90 4330 l0 -580 580 0 580 0 0 580 0 580 -580 0 -580 0 0 -580z
m1000 -5 l0 -415 -415 0 -415 0 0 415 0 415 415 0 415 0 0 -415z"/>
<path d="M420 4330 l0 -250 250 0 250 0 0 250 0 250 -250 0 -250 0 0 -250z"/>
<path d="M2260 4745 l0 -165 -85 0 -85 0 0 -85 0 -85 -85 0 -85 0 0 -80 0 -80
-80 0 -80 0 0 80 0 80 -85 0 -85 0 0 85 0 85 85 0 85 0 0 80 0 80 -85 0 -85 0
0 -80 0 -80 -85 0 -85 0 0 -165 0 -165 170 0 170 0 0 -85 0 -85 -85 0 -85 0 0
-85 0 -85 -85 0 -85 0 0 -80 0 -80 85 0 85 0 0 -255 0 -255 -85 0 -85 0 0 170
0 170 -165 0 -165 0 0 -85 0 -85 -85 0 -85 0 0 85 0 85 -165 0 -165 0 0 -85 0
-85 80 0 80 0 0 -85 0 -85 85 0 85 0 0 -165 0 -165 -85 0 -85 0 0 85 0 85 -80
0 -80 0 0 80 0 80 -85 0 -85 0 0 85 0 85 -165 0 -165 0 0 -250 0 -250 85 0 85
0 0 165 0 165 80 0 80 0 0 -80 0 -80 85 0 85 0 0 -85 0 -85 80 0 80 0 0 -85 0
-85 -165 0 -165 0 0 -80 0 -80 165 0 165 0 0 -85 0 -85 -245 0 -245 0 0 -80 0
-80 165 0 165 0 0 -85 0 -85 -85 0 -85 0 0 -85 0 -85 -80 0 -80 0 0 85 0 85
-85 0 -85 0 0 -335 0 -335 165 0 165 0 0 250 0 250 85 0 85 0 0 -80 0 -80 80
0 80 0 0 -170 0 -170 250 0 250 0 0 85 0 85 -165 0 -165 0 0 165 0 165 -85 0
-85 0 0 85 0 85 85 0 85 0 0 85 0 85 85 0 85 0 0 -85 0 -85 80 0 80 0 0 -85 0
-85 -80 0 -80 0 0 -80 0 -80 165 0 165 0 0 80 0 80 85 0 85 0 0 -250 0 -250
-85 0 -85 0 0 -165 0 -165 85 0 85 0 0 -85 0 -85 -85 0 -85 0 0 -165 0 -165
170 0 170 0 0 -85 0 -85 -85 0 -85 0 0 -165 0 -165 85 0 85 0 0 165 0 165 165
0 165 0 0 -80 0 -80 85 0 85 0 0 -85 0 -85 80 0 80 0 0 250 0 250 85 0 85 0 0
-165 0 -165 165 0 165 0 0 -85 0 -85 85 0 85 0 0 85 0 85 80 0 80 0 0 -85 0
-85 500 0 500 0 0 85 0 85 170 0 170 0 0 80 0 80 80 0 80 0 0 -80 0 -80 85 0
85 0 0 165 0 165 -85 0 -85 0 0 85 0 85 85 0 85 0 0 165 0 165 -85 0 -85 0 0
-85 0 -85 -80 0 -80 0 0 -80 0 -80 -170 0 -170 0 0 80 0 80 85 0 85 0 0 85 0
85 85 0 85 0 0 165 0 165 80 0 80 0 0 85 0 85 -80 0 -80 0 0 165 0 165 -85 0
-85 0 0 -250 0 -250 -85 0 -85 0 0 170 0 170 -415 0 -415 0 0 80 0 80 85 0 85
0 0 85 0 85 80 0 80 0 0 85 0 85 -80 0 -80 0 0 165 0 165 -170 0 -170 0 0 165
0 165 85 0 85 0 0 -85 0 -85 165 0 165 0 0 -80 0 -80 85 0 85 0 0 -85 0 -85
85 0 85 0 0 -80 0 -80 -85 0 -85 0 0 -85 0 -85 85 0 85 0 0 -85 0 -85 80 0 80
0 0 85 0 85 85 0 85 0 0 85 0 85 85 0 85 0 0 80 0 80 -85 0 -85 0 0 85 0 85
85 0 85 0 0 80 0 80 80 0 80 0 0 -330 0 -330 85 0 85 0 0 330 0 330 -85 0 -85
0 0 85 0 85 85 0 85 0 0 85 0 85 -85 0 -85 0 0 -85 0 -85 -80 0 -80 0 0 -85 0
-85 -85 0 -85 0 0 -80 0 -80 -85 0 -85 0 0 80 0 80 -80 0 -80 0 0 -80 0 -80
-85 0 -85 0 0 165 0 165 -165 0 -165 0 0 85 0 85 165 0 165 0 0 80 0 80 85 0
85 0 0 -165 0 -165 165 0 165 0 0 85 0 85 85 0 85 0 0 80 0 80 80 0 80 0 0 85
0 85 -80 0 -80 0 0 85 0 85 -170 0 -170 0 0 -85 0 -85 -165 0 -165 0 0 -85 0
-85 -165 0 -165 0 0 -80 0 -80 -170 0 -170 0 0 80 0 80 85 0 85 0 0 85 0 85
-85 0 -85 0 0 85 0 85 170 0 170 0 0 250 0 250 -85 0 -85 0 0 85 0 85 85 0 85
0 0 165 0 165 -85 0 -85 0 0 80 0 80 85 0 85 0 0 85 0 85 -85 0 -85 0 0 -85 0
-85 -85 0 -85 0 0 85 0 85 -80 0 -80 0 0 -85 0 -85 80 0 80 0 0 -330 0 -330
85 0 85 0 0 -165 0 -165 -85 0 -85 0 0 80 0 80 -80 0 -80 0 0 -80 0 -80 80 0
80 0 0 -85 0 -85 -80 0 -80 0 0 -250 0 -250 -85 0 -85 0 0 -85 0 -85 85 0 85
0 0 -85 0 -85 -85 0 -85 0 0 -80 0 -80 -85 0 -85 0 0 80 0 80 -165 0 -165 0 0
85 0 85 165 0 165 0 0 85 0 85 -165 0 -165 0 0 165 0 165 -80 0 -80 0 0 85 0
85 165 0 165 0 0 165 0 165 80 0 80 0 0 -80 0 -80 85 0 85 0 0 250 0 250 85 0
85 0 0 80 0 80 -85 0 -85 0 0 250 0 250 -330 0 -330 0 0 -165z m490 -335 l0
-330 -80 0 -80 0 0 -85 0 -85 -85 0 -85 0 0 -80 0 -80 -80 0 -80 0 0 80 0 80
-85 0 -85 0 0 -80 0 -80 -85 0 -85 0 0 80 0 80 85 0 85 0 0 85 0 85 85 0 85 0
0 85 0 85 165 0 165 0 0 165 0 165 -85 0 -85 0 0 80 0 80 165 0 165 0 0 -330z
m-990 -580 l0 -80 -85 0 -85 0 0 80 0 80 85 0 85 0 0 -80z m330 -335 l0 -85
85 0 85 0 0 -85 0 -85 -85 0 -85 0 0 85 0 85 -165 0 -165 0 0 85 0 85 165 0
165 0 0 -85z m-840 -170 l0 -85 -80 0 -80 0 0 85 0 85 80 0 80 0 0 -85z m0
-330 l0 -85 85 0 85 0 0 85 0 85 85 0 85 0 0 -85 0 -85 -85 0 -85 0 0 -85 0
-85 85 0 85 0 0 -80 0 -80 85 0 85 0 0 80 0 80 80 0 80 0 0 170 0 170 85 0 85
0 0 -85 0 -85 85 0 85 0 0 85 0 85 80 0 80 0 0 -85 0 -85 -80 0 -80 0 0 -85 0
-85 80 0 80 0 0 -80 0 -80 85 0 85 0 0 -85 0 -85 80 0 80 0 0 -80 0 -80 85 0
85 0 0 -85 0 -85 85 0 85 0 0 -85 0 -85 80 0 80 0 0 -80 0 -80 85 0 85 0 0
-85 0 -85 -85 0 -85 0 0 -85 0 -85 -80 0 -80 0 0 -80 0 -80 80 0 80 0 0 -250
0 -250 335 0 335 0 0 -170 0 -170 85 0 85 0 0 -80 0 -80 -170 0 -170 0 0 165
0 165 -165 0 -165 0 0 -85 0 -85 85 0 85 0 0 -80 0 -80 -170 0 -170 0 0 165 0
165 -80 0 -80 0 0 85 0 85 -85 0 -85 0 0 80 0 80 -85 0 -85 0 0 85 0 85 -165
0 -165 0 0 -85 0 -85 85 0 85 0 0 -80 0 -80 80 0 80 0 0 -85 0 -85 85 0 85 0
0 -85 0 -85 -85 0 -85 0 0 85 0 85 -80 0 -80 0 0 85 0 85 -85 0 -85 0 0 -85 0
-85 -80 0 -80 0 0 -85 0 -85 -85 0 -85 0 0 85 0 85 85 0 85 0 0 250 0 250 -85
0 -85 0 0 -165 0 -165 -85 0 -85 0 0 -85 0 -85 -80 0 -80 0 0 85 0 85 -85 0
-85 0 0 80 0 80 85 0 85 0 0 -80 0 -80 80 0 80 0 0 165 0 165 -165 0 -165 0 0
85 0 85 165 0 165 0 0 -85 0 -85 85 0 85 0 0 165 0 165 85 0 85 0 0 85 0 85
-170 0 -170 0 0 -85 0 -85 -80 0 -80 0 0 250 0 250 165 0 165 0 0 170 0 170
-85 0 -85 0 0 165 0 165 -80 0 -80 0 0 -85 0 -85 -170 0 -170 0 0 -80 0 -80
-165 0 -165 0 0 80 0 80 -85 0 -85 0 0 -80 0 -80 -85 0 -85 0 0 80 0 80 85 0
85 0 0 165 0 165 165 0 165 0 0 85 0 85 -80 0 -80 0 0 85 0 85 80 0 80 0 0
-85z m2000 0 l0 -85 -80 0 -80 0 0 85 0 85 80 0 80 0 0 -85z m1000 -500 l0
-85 -80 0 -80 0 0 85 0 85 80 0 80 0 0 -85z m-2490 -330 l0 -85 -85 0 -85 0 0
85 0 85 85 0 85 0 0 -85z m1660 0 l0 -85 -85 0 -85 0 0 85 0 85 85 0 85 0 0
-85z m830 0 l0 -85 -80 0 -80 0 0 85 0 85 80 0 80 0 0 -85z m-160 -1005 l0
-250 -250 0 -250 0 0 250 0 250 250 0 250 0 0 -250z m330 5 l0 -85 -85 0 -85
0 0 85 0 85 85 0 85 0 0 -85z m-170 -500 l0 -85 -80 0 -80 0 0 85 0 85 80 0
80 0 0 -85z"/>
<path d="M2260 3995 l0 -85 80 0 80 0 0 85 0 85 -80 0 -80 0 0 -85z"/>
<path d="M1250 2660 l0 -80 -80 0 -80 0 0 -85 0 -85 80 0 80 0 0 85 0 85 85 0
85 0 0 80 0 80 -85 0 -85 0 0 -80z"/>
<path d="M1920 2660 l0 -80 85 0 85 0 0 -85 0 -85 85 0 85 0 0 -250 0 -250
165 0 165 0 0 -80 0 -80 80 0 80 0 0 80 0 80 85 0 85 0 0 -250 0 -250 -85 0
-85 0 0 85 0 85 -165 0 -165 0 0 85 0 85 -80 0 -80 0 0 -85 0 -85 80 0 80 0 0
-85 0 -85 -80 0 -80 0 0 -165 0 -165 80 0 80 0 0 165 0 165 85 0 85 0 0 -80 0
-80 80 0 80 0 0 -85 0 -85 85 0 85 0 0 -85 0 -85 85 0 85 0 0 85 0 85 -85 0
-85 0 0 165 0 165 85 0 85 0 0 250 0 250 -85 0 -85 0 0 85 0 85 -85 0 -85 0 0
-85 0 -85 -80 0 -80 0 0 170 0 170 -85 0 -85 0 0 165 0 165 -80 0 -80 0 0 80
0 80 -170 0 -170 0 0 -80z"/>
<path d="M3750 1165 l0 -85 85 0 85 0 0 85 0 85 -85 0 -85 0 0 -85z"/>
<path d="M3750 4330 l0 -580 585 0 585 0 0 580 0 580 -585 0 -585 0 0 -580z
m1000 -5 l0 -415 -415 0 -415 0 0 415 0 415 415 0 415 0 0 -415z"/>
<path d="M4090 4330 l0 -250 250 0 250 0 0 250 0 250 -250 0 -250 0 0 -250z"/>
<path d="M2750 3495 l0 -85 -80 0 -80 0 0 -85 0 -85 165 0 165 0 0 170 0 170
-85 0 -85 0 0 -85z"/>
<path d="M90 2660 l0 -80 85 0 85 0 0 80 0 80 -85 0 -85 0 0 -80z"/>
<path d="M4750 1830 l0 -80 85 0 85 0 0 80 0 80 -85 0 -85 0 0 -80z"/>
<path d="M90 665 l0 -585 580 0 580 0 0 585 0 585 -580 0 -580 0 0 -585z
m1000 0 l0 -415 -415 0 -415 0 0 415 0 415 415 0 415 0 0 -415z"/>
<path d="M420 660 l0 -250 250 0 250 0 0 250 0 250 -250 0 -250 0 0 -250z"/>
</g>
</svg>
