<?xml version="1.0" standalone="no"?>
<!DOCTYPE svg PUBLIC "-//W3C//DTD SVG 20010904//EN"
 "http://www.w3.org/TR/2001/REC-SVG-20010904/DTD/svg10.dtd">
<svg version="1.0" xmlns="http://www.w3.org/2000/svg"
 width="700.000000pt" height="700.000000pt" viewBox="0 0 700.000000 700.000000"
 preserveAspectRatio="xMidYMid meet">
<metadata>
Created by potrace 1.14, written by Peter Selinger 2001-2017
</metadata>
<g transform="translate(0.000000,700.000000) scale(0.100000,-0.100000)"
fill="#000000" stroke="none">
<path d="M3308 6995 c-2 -1 -39 -5 -83 -9 -156 -12 -262 -28 -485 -72 -14 -3
-66 -16 -117 -29 -830 -220 -1554 -730 -2024 -1426 -139 -206 -273 -461 -362
-689 -73 -188 -154 -466 -172 -590 -3 -25 -10 -63 -15 -85 -12 -54 -28 -177
-37 -278 -15 -160 -8 -598 12 -718 2 -13 6 -46 10 -74 10 -87 35 -216 71 -361
92 -377 235 -712 457 -1068 46 -74 174 -248 252 -342 187 -224 404 -425 660
-612 60 -43 105 -72 113 -72 5 0 17 -9 27 -20 10 -11 21 -20 25 -20 4 0 44
-22 89 -49 45 -27 143 -80 219 -118 125 -62 134 -68 102 -71 -55 -4 -75 -10
-96 -29 -38 -33 -56 -71 -56 -119 0 -51 18 -83 66 -118 27 -21 29 -21 1529
-23 1219 -1 1507 1 1527 12 55 29 92 97 83 154 -10 66 -74 122 -143 123 -22 0
-40 3 -39 7 0 3 71 41 158 84 410 202 819 525 1111 877 62 75 238 314 265 361
173 298 254 459 320 640 97 266 155 498 199 799 21 140 28 548 14 715 -12 127
-17 177 -24 215 -3 19 -8 46 -10 60 -3 14 -12 61 -20 105 -8 44 -18 91 -20
105 -23 123 -102 375 -173 553 -402 1014 -1275 1786 -2336 2067 -189 50 -316
73 -580 106 -48 6 -511 14 -517 9z"/>
</g>
</svg>
